<?xml version="1.0" encoding="utf-8" standalone="no"?>
<!DOCTYPE svg PUBLIC "-//W3C//DTD SVG 1.1//EN"
  "http://www.w3.org/Graphics/SVG/1.1/DTD/svg11.dtd">
<!-- Created with matplotlib (https://matplotlib.org/) -->
<svg height="288pt" version="1.1" viewBox="0 0 1080 288" width="1080pt" xmlns="http://www.w3.org/2000/svg" xmlns:xlink="http://www.w3.org/1999/xlink">
 <metadata>
  <rdf:RDF xmlns:cc="http://creativecommons.org/ns#" xmlns:dc="http://purl.org/dc/elements/1.1/" xmlns:rdf="http://www.w3.org/1999/02/22-rdf-syntax-ns#">
   <cc:Work>
    <dc:type rdf:resource="http://purl.org/dc/dcmitype/StillImage"/>
    <dc:date>2021-01-01T15:31:27.889760</dc:date>
    <dc:format>image/svg+xml</dc:format>
    <dc:creator>
     <cc:Agent>
      <dc:title>Matplotlib v3.3.2, https://matplotlib.org/</dc:title>
     </cc:Agent>
    </dc:creator>
   </cc:Work>
  </rdf:RDF>
 </metadata>
 <defs>
  <style type="text/css">*{stroke-linecap:butt;stroke-linejoin:round;}</style>
 </defs>
 <g id="figure_1">
  <g id="patch_1">
   <path d="M 0 288 
L 1080 288 
L 1080 0 
L 0 0 
z
" style="fill:#ffffff;"/>
  </g>
  <g id="axes_1">
   <g id="patch_2">
    <path d="M 31.39 259.4 
L 1067.04 259.4 
L 1067.04 42.301335 
L 31.39 42.301335 
z
" style="fill:#eaeaf2;"/>
   </g>
   <g id="matplotlib.axis_1">
    <g id="xtick_1">
     <g id="text_1">
      <!-- bmi -->
      <g style="fill:#262626;" transform="translate(282.24625 273.557813)scale(0.1 -0.1)">
       <defs>
        <path d="M 14.703125 0 
L 6.546875 0 
L 6.546875 71.578125 
L 15.328125 71.578125 
L 15.328125 46.046875 
Q 20.90625 53.03125 29.546875 53.03125 
Q 34.328125 53.03125 38.59375 51.09375 
Q 42.875 49.171875 45.625 45.671875 
Q 48.390625 42.1875 49.953125 37.25 
Q 51.515625 32.328125 51.515625 26.703125 
Q 51.515625 13.375 44.921875 6.09375 
Q 38.328125 -1.171875 29.109375 -1.171875 
Q 19.921875 -1.171875 14.703125 6.5 
z
M 14.59375 26.3125 
Q 14.59375 17 17.140625 12.84375 
Q 21.296875 6.0625 28.375 6.0625 
Q 34.125 6.0625 38.328125 11.0625 
Q 42.53125 16.0625 42.53125 25.984375 
Q 42.53125 36.140625 38.5 40.96875 
Q 34.46875 45.796875 28.765625 45.796875 
Q 23 45.796875 18.796875 40.796875 
Q 14.59375 35.796875 14.59375 26.3125 
z
" id="ArialMT-98"/>
        <path d="M 6.59375 0 
L 6.59375 51.859375 
L 14.453125 51.859375 
L 14.453125 44.578125 
Q 16.890625 48.390625 20.9375 50.703125 
Q 25 53.03125 30.171875 53.03125 
Q 35.9375 53.03125 39.625 50.640625 
Q 43.3125 48.25 44.828125 43.953125 
Q 50.984375 53.03125 60.84375 53.03125 
Q 68.5625 53.03125 72.703125 48.75 
Q 76.859375 44.484375 76.859375 35.59375 
L 76.859375 0 
L 68.109375 0 
L 68.109375 32.671875 
Q 68.109375 37.9375 67.25 40.25 
Q 66.40625 42.578125 64.15625 43.984375 
Q 61.921875 45.40625 58.890625 45.40625 
Q 53.421875 45.40625 49.796875 41.765625 
Q 46.1875 38.140625 46.1875 30.125 
L 46.1875 0 
L 37.40625 0 
L 37.40625 33.6875 
Q 37.40625 39.546875 35.25 42.46875 
Q 33.109375 45.40625 28.21875 45.40625 
Q 24.515625 45.40625 21.359375 43.453125 
Q 18.21875 41.5 16.796875 37.734375 
Q 15.375 33.984375 15.375 26.90625 
L 15.375 0 
z
" id="ArialMT-109"/>
        <path d="M 6.640625 61.46875 
L 6.640625 71.578125 
L 15.4375 71.578125 
L 15.4375 61.46875 
z
M 6.640625 0 
L 6.640625 51.859375 
L 15.4375 51.859375 
L 15.4375 0 
z
" id="ArialMT-105"/>
       </defs>
       <use xlink:href="#ArialMT-98"/>
       <use x="55.615234" xlink:href="#ArialMT-109"/>
       <use x="138.916016" xlink:href="#ArialMT-105"/>
      </g>
     </g>
    </g>
    <g id="xtick_2">
     <g id="text_2">
      <!-- charges -->
      <g style="fill:#262626;" transform="translate(790.340781 273.557813)scale(0.1 -0.1)">
       <defs>
        <path d="M 40.4375 19 
L 49.078125 17.875 
Q 47.65625 8.9375 41.8125 3.875 
Q 35.984375 -1.171875 27.484375 -1.171875 
Q 16.84375 -1.171875 10.375 5.78125 
Q 3.90625 12.75 3.90625 25.734375 
Q 3.90625 34.125 6.6875 40.421875 
Q 9.46875 46.734375 15.15625 49.875 
Q 20.84375 53.03125 27.546875 53.03125 
Q 35.984375 53.03125 41.359375 48.75 
Q 46.734375 44.484375 48.25 36.625 
L 39.703125 35.296875 
Q 38.484375 40.53125 35.375 43.15625 
Q 32.28125 45.796875 27.875 45.796875 
Q 21.234375 45.796875 17.078125 41.03125 
Q 12.9375 36.28125 12.9375 25.984375 
Q 12.9375 15.53125 16.9375 10.796875 
Q 20.953125 6.0625 27.390625 6.0625 
Q 32.5625 6.0625 36.03125 9.234375 
Q 39.5 12.40625 40.4375 19 
z
" id="ArialMT-99"/>
        <path d="M 6.59375 0 
L 6.59375 71.578125 
L 15.375 71.578125 
L 15.375 45.90625 
Q 21.53125 53.03125 30.90625 53.03125 
Q 36.671875 53.03125 40.921875 50.75 
Q 45.171875 48.484375 47 44.484375 
Q 48.828125 40.484375 48.828125 32.859375 
L 48.828125 0 
L 40.046875 0 
L 40.046875 32.859375 
Q 40.046875 39.453125 37.1875 42.453125 
Q 34.328125 45.453125 29.109375 45.453125 
Q 25.203125 45.453125 21.75 43.421875 
Q 18.3125 41.40625 16.84375 37.9375 
Q 15.375 34.46875 15.375 28.375 
L 15.375 0 
z
" id="ArialMT-104"/>
        <path d="M 40.4375 6.390625 
Q 35.546875 2.25 31.03125 0.53125 
Q 26.515625 -1.171875 21.34375 -1.171875 
Q 12.796875 -1.171875 8.203125 3 
Q 3.609375 7.171875 3.609375 13.671875 
Q 3.609375 17.484375 5.34375 20.625 
Q 7.078125 23.78125 9.890625 25.6875 
Q 12.703125 27.59375 16.21875 28.5625 
Q 18.796875 29.25 24.03125 29.890625 
Q 34.671875 31.15625 39.703125 32.90625 
Q 39.75 34.71875 39.75 35.203125 
Q 39.75 40.578125 37.25 42.78125 
Q 33.890625 45.75 27.25 45.75 
Q 21.046875 45.75 18.09375 43.578125 
Q 15.140625 41.40625 13.71875 35.890625 
L 5.125 37.0625 
Q 6.296875 42.578125 8.984375 45.96875 
Q 11.671875 49.359375 16.75 51.1875 
Q 21.828125 53.03125 28.515625 53.03125 
Q 35.15625 53.03125 39.296875 51.46875 
Q 43.453125 49.90625 45.40625 47.53125 
Q 47.359375 45.171875 48.140625 41.546875 
Q 48.578125 39.3125 48.578125 33.453125 
L 48.578125 21.734375 
Q 48.578125 9.46875 49.140625 6.21875 
Q 49.703125 2.984375 51.375 0 
L 42.1875 0 
Q 40.828125 2.734375 40.4375 6.390625 
z
M 39.703125 26.03125 
Q 34.90625 24.078125 25.34375 22.703125 
Q 19.921875 21.921875 17.671875 20.9375 
Q 15.4375 19.96875 14.203125 18.09375 
Q 12.984375 16.21875 12.984375 13.921875 
Q 12.984375 10.40625 15.640625 8.0625 
Q 18.3125 5.71875 23.4375 5.71875 
Q 28.515625 5.71875 32.46875 7.9375 
Q 36.421875 10.15625 38.28125 14.015625 
Q 39.703125 17 39.703125 22.796875 
z
" id="ArialMT-97"/>
        <path d="M 6.5 0 
L 6.5 51.859375 
L 14.40625 51.859375 
L 14.40625 44 
Q 17.4375 49.515625 20 51.265625 
Q 22.5625 53.03125 25.640625 53.03125 
Q 30.078125 53.03125 34.671875 50.203125 
L 31.640625 42.046875 
Q 28.421875 43.953125 25.203125 43.953125 
Q 22.3125 43.953125 20.015625 42.21875 
Q 17.71875 40.484375 16.75 37.40625 
Q 15.28125 32.71875 15.28125 27.15625 
L 15.28125 0 
z
" id="ArialMT-114"/>
        <path d="M 4.984375 -4.296875 
L 13.53125 -5.5625 
Q 14.0625 -9.515625 16.5 -11.328125 
Q 19.78125 -13.765625 25.4375 -13.765625 
Q 31.546875 -13.765625 34.859375 -11.328125 
Q 38.1875 -8.890625 39.359375 -4.5 
Q 40.046875 -1.8125 39.984375 6.78125 
Q 34.234375 0 25.640625 0 
Q 14.9375 0 9.078125 7.71875 
Q 3.21875 15.4375 3.21875 26.21875 
Q 3.21875 33.640625 5.90625 39.90625 
Q 8.59375 46.1875 13.6875 49.609375 
Q 18.796875 53.03125 25.6875 53.03125 
Q 34.859375 53.03125 40.828125 45.609375 
L 40.828125 51.859375 
L 48.921875 51.859375 
L 48.921875 7.03125 
Q 48.921875 -5.078125 46.453125 -10.125 
Q 44 -15.1875 38.640625 -18.109375 
Q 33.296875 -21.046875 25.484375 -21.046875 
Q 16.21875 -21.046875 10.5 -16.875 
Q 4.78125 -12.703125 4.984375 -4.296875 
z
M 12.25 26.859375 
Q 12.25 16.65625 16.296875 11.96875 
Q 20.359375 7.28125 26.46875 7.28125 
Q 32.515625 7.28125 36.609375 11.9375 
Q 40.71875 16.609375 40.71875 26.5625 
Q 40.71875 36.078125 36.5 40.90625 
Q 32.28125 45.75 26.3125 45.75 
Q 20.453125 45.75 16.34375 40.984375 
Q 12.25 36.234375 12.25 26.859375 
z
" id="ArialMT-103"/>
        <path d="M 42.09375 16.703125 
L 51.171875 15.578125 
Q 49.03125 7.625 43.21875 3.21875 
Q 37.40625 -1.171875 28.375 -1.171875 
Q 17 -1.171875 10.328125 5.828125 
Q 3.65625 12.84375 3.65625 25.484375 
Q 3.65625 38.578125 10.390625 45.796875 
Q 17.140625 53.03125 27.875 53.03125 
Q 38.28125 53.03125 44.875 45.953125 
Q 51.46875 38.875 51.46875 26.03125 
Q 51.46875 25.25 51.421875 23.6875 
L 12.75 23.6875 
Q 13.234375 15.140625 17.578125 10.59375 
Q 21.921875 6.0625 28.421875 6.0625 
Q 33.25 6.0625 36.671875 8.59375 
Q 40.09375 11.140625 42.09375 16.703125 
z
M 13.234375 30.90625 
L 42.1875 30.90625 
Q 41.609375 37.453125 38.875 40.71875 
Q 34.671875 45.796875 27.984375 45.796875 
Q 21.921875 45.796875 17.796875 41.75 
Q 13.671875 37.703125 13.234375 30.90625 
z
" id="ArialMT-101"/>
        <path d="M 3.078125 15.484375 
L 11.765625 16.84375 
Q 12.5 11.625 15.84375 8.84375 
Q 19.1875 6.0625 25.203125 6.0625 
Q 31.25 6.0625 34.171875 8.515625 
Q 37.109375 10.984375 37.109375 14.3125 
Q 37.109375 17.28125 34.515625 19 
Q 32.71875 20.171875 25.53125 21.96875 
Q 15.875 24.421875 12.140625 26.203125 
Q 8.40625 27.984375 6.46875 31.125 
Q 4.546875 34.28125 4.546875 38.09375 
Q 4.546875 41.546875 6.125 44.5 
Q 7.71875 47.46875 10.453125 49.421875 
Q 12.5 50.921875 16.03125 51.96875 
Q 19.578125 53.03125 23.640625 53.03125 
Q 29.734375 53.03125 34.34375 51.265625 
Q 38.96875 49.515625 41.15625 46.5 
Q 43.359375 43.5 44.1875 38.484375 
L 35.59375 37.3125 
Q 35.015625 41.3125 32.203125 43.546875 
Q 29.390625 45.796875 24.265625 45.796875 
Q 18.21875 45.796875 15.625 43.796875 
Q 13.03125 41.796875 13.03125 39.109375 
Q 13.03125 37.40625 14.109375 36.03125 
Q 15.1875 34.625 17.484375 33.6875 
Q 18.796875 33.203125 25.25 31.453125 
Q 34.578125 28.953125 38.25 27.359375 
Q 41.9375 25.78125 44.03125 22.75 
Q 46.140625 19.734375 46.140625 15.234375 
Q 46.140625 10.84375 43.578125 6.953125 
Q 41.015625 3.078125 36.171875 0.953125 
Q 31.34375 -1.171875 25.25 -1.171875 
Q 15.140625 -1.171875 9.84375 3.03125 
Q 4.546875 7.234375 3.078125 15.484375 
z
" id="ArialMT-115"/>
       </defs>
       <use xlink:href="#ArialMT-99"/>
       <use x="50" xlink:href="#ArialMT-104"/>
       <use x="105.615234" xlink:href="#ArialMT-97"/>
       <use x="161.230469" xlink:href="#ArialMT-114"/>
       <use x="194.53125" xlink:href="#ArialMT-103"/>
       <use x="250.146484" xlink:href="#ArialMT-101"/>
       <use x="305.761719" xlink:href="#ArialMT-115"/>
      </g>
     </g>
    </g>
   </g>
   <g id="matplotlib.axis_2">
    <g id="ytick_1">
     <g id="line2d_1">
      <path clip-path="url(#p09a1dafc7e)" d="M 31.39 252.544655 
L 1067.04 252.544655 
" style="fill:none;stroke:#ffffff;stroke-linecap:round;"/>
     </g>
     <g id="text_3">
      <!-- −3 -->
      <g style="fill:#262626;" transform="translate(12.988438 256.123561)scale(0.1 -0.1)">
       <defs>
        <path d="M 52.828125 31.203125 
L 5.5625 31.203125 
L 5.5625 39.40625 
L 52.828125 39.40625 
z
" id="ArialMT-8722"/>
        <path d="M 4.203125 18.890625 
L 12.984375 20.0625 
Q 14.5 12.59375 18.140625 9.296875 
Q 21.78125 6 27 6 
Q 33.203125 6 37.46875 10.296875 
Q 41.75 14.59375 41.75 20.953125 
Q 41.75 27 37.796875 30.921875 
Q 33.84375 34.859375 27.734375 34.859375 
Q 25.25 34.859375 21.53125 33.890625 
L 22.515625 41.609375 
Q 23.390625 41.5 23.921875 41.5 
Q 29.546875 41.5 34.03125 44.421875 
Q 38.53125 47.359375 38.53125 53.46875 
Q 38.53125 58.296875 35.25 61.46875 
Q 31.984375 64.65625 26.8125 64.65625 
Q 21.6875 64.65625 18.265625 61.421875 
Q 14.84375 58.203125 13.875 51.765625 
L 5.078125 53.328125 
Q 6.6875 62.15625 12.390625 67.015625 
Q 18.109375 71.875 26.609375 71.875 
Q 32.46875 71.875 37.390625 69.359375 
Q 42.328125 66.84375 44.9375 62.5 
Q 47.5625 58.15625 47.5625 53.265625 
Q 47.5625 48.640625 45.0625 44.828125 
Q 42.578125 41.015625 37.703125 38.765625 
Q 44.046875 37.3125 47.5625 32.6875 
Q 51.078125 28.078125 51.078125 21.140625 
Q 51.078125 11.765625 44.234375 5.25 
Q 37.40625 -1.265625 26.953125 -1.265625 
Q 17.53125 -1.265625 11.296875 4.34375 
Q 5.078125 9.96875 4.203125 18.890625 
z
" id="ArialMT-51"/>
       </defs>
       <use xlink:href="#ArialMT-8722"/>
       <use x="58.398438" xlink:href="#ArialMT-51"/>
      </g>
     </g>
    </g>
    <g id="ytick_2">
     <g id="line2d_2">
      <path clip-path="url(#p09a1dafc7e)" d="M 31.39 226.331468 
L 1067.04 226.331468 
" style="fill:none;stroke:#ffffff;stroke-linecap:round;"/>
     </g>
     <g id="text_4">
      <!-- −2 -->
      <g style="fill:#262626;" transform="translate(12.988438 229.910374)scale(0.1 -0.1)">
       <defs>
        <path d="M 50.34375 8.453125 
L 50.34375 0 
L 3.03125 0 
Q 2.9375 3.171875 4.046875 6.109375 
Q 5.859375 10.9375 9.828125 15.625 
Q 13.8125 20.3125 21.34375 26.46875 
Q 33.015625 36.03125 37.109375 41.625 
Q 41.21875 47.21875 41.21875 52.203125 
Q 41.21875 57.421875 37.46875 61 
Q 33.734375 64.59375 27.734375 64.59375 
Q 21.390625 64.59375 17.578125 60.78125 
Q 13.765625 56.984375 13.71875 50.25 
L 4.6875 51.171875 
Q 5.609375 61.28125 11.65625 66.578125 
Q 17.71875 71.875 27.9375 71.875 
Q 38.234375 71.875 44.234375 66.15625 
Q 50.25 60.453125 50.25 52 
Q 50.25 47.703125 48.484375 43.546875 
Q 46.734375 39.40625 42.65625 34.8125 
Q 38.578125 30.21875 29.109375 22.21875 
Q 21.1875 15.578125 18.9375 13.203125 
Q 16.703125 10.84375 15.234375 8.453125 
z
" id="ArialMT-50"/>
       </defs>
       <use xlink:href="#ArialMT-8722"/>
       <use x="58.398438" xlink:href="#ArialMT-50"/>
      </g>
     </g>
    </g>
    <g id="ytick_3">
     <g id="line2d_3">
      <path clip-path="url(#p09a1dafc7e)" d="M 31.39 200.11828 
L 1067.04 200.11828 
" style="fill:none;stroke:#ffffff;stroke-linecap:round;"/>
     </g>
     <g id="text_5">
      <!-- −1 -->
      <g style="fill:#262626;" transform="translate(12.988438 203.697186)scale(0.1 -0.1)">
       <defs>
        <path d="M 37.25 0 
L 28.46875 0 
L 28.46875 56 
Q 25.296875 52.984375 20.140625 49.953125 
Q 14.984375 46.921875 10.890625 45.40625 
L 10.890625 53.90625 
Q 18.265625 57.375 23.78125 62.296875 
Q 29.296875 67.234375 31.59375 71.875 
L 37.25 71.875 
z
" id="ArialMT-49"/>
       </defs>
       <use xlink:href="#ArialMT-8722"/>
       <use x="58.398438" xlink:href="#ArialMT-49"/>
      </g>
     </g>
    </g>
    <g id="ytick_4">
     <g id="line2d_4">
      <path clip-path="url(#p09a1dafc7e)" d="M 31.39 173.905092 
L 1067.04 173.905092 
" style="fill:none;stroke:#ffffff;stroke-linecap:round;"/>
     </g>
     <g id="text_6">
      <!-- 0 -->
      <g style="fill:#262626;" transform="translate(18.829063 177.483999)scale(0.1 -0.1)">
       <defs>
        <path d="M 4.15625 35.296875 
Q 4.15625 48 6.765625 55.734375 
Q 9.375 63.484375 14.515625 67.671875 
Q 19.671875 71.875 27.484375 71.875 
Q 33.25 71.875 37.59375 69.546875 
Q 41.9375 67.234375 44.765625 62.859375 
Q 47.609375 58.5 49.21875 52.21875 
Q 50.828125 45.953125 50.828125 35.296875 
Q 50.828125 22.703125 48.234375 14.96875 
Q 45.65625 7.234375 40.5 3 
Q 35.359375 -1.21875 27.484375 -1.21875 
Q 17.140625 -1.21875 11.234375 6.203125 
Q 4.15625 15.140625 4.15625 35.296875 
z
M 13.1875 35.296875 
Q 13.1875 17.671875 17.3125 11.828125 
Q 21.4375 6 27.484375 6 
Q 33.546875 6 37.671875 11.859375 
Q 41.796875 17.71875 41.796875 35.296875 
Q 41.796875 52.984375 37.671875 58.78125 
Q 33.546875 64.59375 27.390625 64.59375 
Q 21.34375 64.59375 17.71875 59.46875 
Q 13.1875 52.9375 13.1875 35.296875 
z
" id="ArialMT-48"/>
       </defs>
       <use xlink:href="#ArialMT-48"/>
      </g>
     </g>
    </g>
    <g id="ytick_5">
     <g id="line2d_5">
      <path clip-path="url(#p09a1dafc7e)" d="M 31.39 147.691905 
L 1067.04 147.691905 
" style="fill:none;stroke:#ffffff;stroke-linecap:round;"/>
     </g>
     <g id="text_7">
      <!-- 1 -->
      <g style="fill:#262626;" transform="translate(18.829063 151.270811)scale(0.1 -0.1)">
       <use xlink:href="#ArialMT-49"/>
      </g>
     </g>
    </g>
    <g id="ytick_6">
     <g id="line2d_6">
      <path clip-path="url(#p09a1dafc7e)" d="M 31.39 121.478717 
L 1067.04 121.478717 
" style="fill:none;stroke:#ffffff;stroke-linecap:round;"/>
     </g>
     <g id="text_8">
      <!-- 2 -->
      <g style="fill:#262626;" transform="translate(18.829063 125.057623)scale(0.1 -0.1)">
       <use xlink:href="#ArialMT-50"/>
      </g>
     </g>
    </g>
    <g id="ytick_7">
     <g id="line2d_7">
      <path clip-path="url(#p09a1dafc7e)" d="M 31.39 95.26553 
L 1067.04 95.26553 
" style="fill:none;stroke:#ffffff;stroke-linecap:round;"/>
     </g>
     <g id="text_9">
      <!-- 3 -->
      <g style="fill:#262626;" transform="translate(18.829063 98.844436)scale(0.1 -0.1)">
       <use xlink:href="#ArialMT-51"/>
      </g>
     </g>
    </g>
    <g id="ytick_8">
     <g id="line2d_8">
      <path clip-path="url(#p09a1dafc7e)" d="M 31.39 69.052342 
L 1067.04 69.052342 
" style="fill:none;stroke:#ffffff;stroke-linecap:round;"/>
     </g>
     <g id="text_10">
      <!-- 4 -->
      <g style="fill:#262626;" transform="translate(18.829063 72.631248)scale(0.1 -0.1)">
       <defs>
        <path d="M 32.328125 0 
L 32.328125 17.140625 
L 1.265625 17.140625 
L 1.265625 25.203125 
L 33.9375 71.578125 
L 41.109375 71.578125 
L 41.109375 25.203125 
L 50.78125 25.203125 
L 50.78125 17.140625 
L 41.109375 17.140625 
L 41.109375 0 
z
M 32.328125 25.203125 
L 32.328125 57.46875 
L 9.90625 25.203125 
z
" id="ArialMT-52"/>
       </defs>
       <use xlink:href="#ArialMT-52"/>
      </g>
     </g>
    </g>
    <g id="ytick_9">
     <g id="line2d_9">
      <path clip-path="url(#p09a1dafc7e)" d="M 31.39 42.839154 
L 1067.04 42.839154 
" style="fill:none;stroke:#ffffff;stroke-linecap:round;"/>
     </g>
     <g id="text_11">
      <!-- 5 -->
      <g style="fill:#262626;" transform="translate(18.829063 46.418061)scale(0.1 -0.1)">
       <defs>
        <path d="M 4.15625 18.75 
L 13.375 19.53125 
Q 14.40625 12.796875 18.140625 9.390625 
Q 21.875 6 27.15625 6 
Q 33.5 6 37.890625 10.78125 
Q 42.28125 15.578125 42.28125 23.484375 
Q 42.28125 31 38.0625 35.34375 
Q 33.84375 39.703125 27 39.703125 
Q 22.75 39.703125 19.328125 37.765625 
Q 15.921875 35.84375 13.96875 32.765625 
L 5.71875 33.84375 
L 12.640625 70.609375 
L 48.25 70.609375 
L 48.25 62.203125 
L 19.671875 62.203125 
L 15.828125 42.96875 
Q 22.265625 47.46875 29.34375 47.46875 
Q 38.71875 47.46875 45.15625 40.96875 
Q 51.609375 34.46875 51.609375 24.265625 
Q 51.609375 14.546875 45.953125 7.46875 
Q 39.0625 -1.21875 27.15625 -1.21875 
Q 17.390625 -1.21875 11.203125 4.25 
Q 5.03125 9.71875 4.15625 18.75 
z
" id="ArialMT-53"/>
       </defs>
       <use xlink:href="#ArialMT-53"/>
      </g>
     </g>
    </g>
   </g>
   <g id="PolyCollection_1">
    <defs>
     <path d="M 290.52919 -38.468121 
L 290.07581 -38.468121 
L 289.833818 -40.333009 
L 289.395742 -42.197897 
L 288.659188 -44.062784 
L 287.509853 -45.927672 
L 285.846329 -47.79256 
L 283.61221 -49.657447 
L 280.821431 -51.522335 
L 277.558776 -53.387223 
L 273.945363 -55.25211 
L 270.078553 -57.116998 
L 265.975973 -58.981886 
L 261.557178 -60.846774 
L 256.676134 -62.711661 
L 251.184865 -64.576549 
L 244.988834 -66.441437 
L 238.064583 -68.306324 
L 230.441618 -70.171212 
L 222.175864 -72.0361 
L 213.340999 -73.900987 
L 204.041108 -75.765875 
L 194.426535 -77.630763 
L 184.692217 -79.495651 
L 175.052373 -81.360538 
L 165.702171 -83.225426 
L 156.783114 -85.090314 
L 148.363269 -86.955201 
L 140.434273 -88.820089 
L 132.923526 -90.684977 
L 125.723604 -92.549864 
L 118.742108 -94.414752 
L 111.963047 -96.27964 
L 105.489985 -98.144528 
L 99.535037 -100.009415 
L 94.345756 -101.874303 
L 90.109872 -103.739191 
L 86.901632 -105.604078 
L 84.702717 -107.468966 
L 83.46814 -109.333854 
L 83.1725 -111.198741 
L 83.799901 -113.063629 
L 85.303221 -114.928517 
L 87.591497 -116.793404 
L 90.574584 -118.658292 
L 94.231704 -120.52318 
L 98.636016 -122.388068 
L 103.894712 -124.252955 
L 110.031824 -126.117843 
L 116.894419 -127.982731 
L 124.158947 -129.847618 
L 131.452734 -131.712506 
L 138.527241 -133.577394 
L 145.378787 -135.442281 
L 152.238591 -137.307169 
L 159.431664 -139.172057 
L 167.182903 -141.036945 
L 175.479208 -142.901832 
L 184.061322 -144.76672 
L 192.542619 -146.631608 
L 200.581551 -148.496495 
L 208.011159 -150.361383 
L 214.863882 -152.226271 
L 221.297401 -154.091158 
L 227.481971 -155.956046 
L 233.517961 -157.820934 
L 239.4158 -159.685822 
L 245.122919 -161.550709 
L 250.559643 -163.415597 
L 255.638144 -165.280485 
L 260.265681 -167.145372 
L 264.349036 -169.01026 
L 267.811757 -170.875148 
L 270.620328 -172.740035 
L 272.805557 -174.604923 
L 274.467395 -176.469811 
L 275.759924 -178.334699 
L 276.860957 -180.199586 
L 277.934721 -182.064474 
L 279.097536 -183.929362 
L 280.396157 -185.794249 
L 281.805559 -187.659137 
L 283.246868 -189.524025 
L 284.618567 -191.388912 
L 285.829044 -193.2538 
L 286.818903 -195.118688 
L 287.56753 -196.983576 
L 288.086609 -198.848463 
L 288.408695 -200.713351 
L 288.578393 -202.578239 
L 288.648152 -204.443126 
L 288.675069 -206.308014 
L 288.71394 -208.172902 
L 288.80605 -210.037789 
L 288.968639 -211.902677 
L 289.191701 -213.767565 
L 289.44495 -215.632453 
L 289.691617 -217.49734 
L 289.902077 -219.362228 
L 290.061393 -221.227116 
L 290.169276 -223.092003 
L 290.435724 -223.092003 
L 290.435724 -223.092003 
L 290.543607 -221.227116 
L 290.702923 -219.362228 
L 290.913383 -217.49734 
L 291.16005 -215.632453 
L 291.413299 -213.767565 
L 291.636361 -211.902677 
L 291.79895 -210.037789 
L 291.89106 -208.172902 
L 291.929931 -206.308014 
L 291.956848 -204.443126 
L 292.026607 -202.578239 
L 292.196305 -200.713351 
L 292.518391 -198.848463 
L 293.03747 -196.983576 
L 293.786097 -195.118688 
L 294.775956 -193.2538 
L 295.986433 -191.388912 
L 297.358132 -189.524025 
L 298.799441 -187.659137 
L 300.208843 -185.794249 
L 301.507464 -183.929362 
L 302.670279 -182.064474 
L 303.744043 -180.199586 
L 304.845076 -178.334699 
L 306.137605 -176.469811 
L 307.799443 -174.604923 
L 309.984672 -172.740035 
L 312.793243 -170.875148 
L 316.255964 -169.01026 
L 320.339319 -167.145372 
L 324.966856 -165.280485 
L 330.045357 -163.415597 
L 335.482081 -161.550709 
L 341.1892 -159.685822 
L 347.087039 -157.820934 
L 353.123029 -155.956046 
L 359.307599 -154.091158 
L 365.741118 -152.226271 
L 372.593841 -150.361383 
L 380.023449 -148.496495 
L 388.062381 -146.631608 
L 396.543678 -144.76672 
L 405.125792 -142.901832 
L 413.422097 -141.036945 
L 421.173336 -139.172057 
L 428.366409 -137.307169 
L 435.226213 -135.442281 
L 442.077759 -133.577394 
L 449.152266 -131.712506 
L 456.446053 -129.847618 
L 463.710581 -127.982731 
L 470.573176 -126.117843 
L 476.710288 -124.252955 
L 481.968984 -122.388068 
L 486.373296 -120.52318 
L 490.030416 -118.658292 
L 493.013503 -116.793404 
L 495.301779 -114.928517 
L 496.805099 -113.063629 
L 497.4325 -111.198741 
L 497.13686 -109.333854 
L 495.902283 -107.468966 
L 493.703368 -105.604078 
L 490.495128 -103.739191 
L 486.259244 -101.874303 
L 481.069963 -100.009415 
L 475.115015 -98.144528 
L 468.641953 -96.27964 
L 461.862892 -94.414752 
L 454.881396 -92.549864 
L 447.681474 -90.684977 
L 440.170727 -88.820089 
L 432.241731 -86.955201 
L 423.821886 -85.090314 
L 414.902829 -83.225426 
L 405.552627 -81.360538 
L 395.912783 -79.495651 
L 386.178465 -77.630763 
L 376.563892 -75.765875 
L 367.264001 -73.900987 
L 358.429136 -72.0361 
L 350.163382 -70.171212 
L 342.540417 -68.306324 
L 335.616166 -66.441437 
L 329.420135 -64.576549 
L 323.928866 -62.711661 
L 319.047822 -60.846774 
L 314.629027 -58.981886 
L 310.526447 -57.116998 
L 306.659637 -55.25211 
L 303.046224 -53.387223 
L 299.783569 -51.522335 
L 296.99279 -49.657447 
L 294.758671 -47.79256 
L 293.095147 -45.927672 
L 291.945812 -44.062784 
L 291.209258 -42.197897 
L 290.771182 -40.333009 
L 290.52919 -38.468121 
z
" id="m5d69969669" style="stroke:#4c4c4c;stroke-width:3;"/>
    </defs>
    <g clip-path="url(#p09a1dafc7e)">
     <use style="fill:#5875a4;stroke:#4c4c4c;stroke-width:3;" x="0" xlink:href="#m5d69969669" y="288"/>
    </g>
   </g>
   <g id="PolyCollection_2">
    <defs>
     <path d="M 814.384585 -75.374384 
L 801.870415 -75.374384 
L 796.893682 -76.995153 
L 789.143429 -78.615923 
L 777.89437 -80.236692 
L 762.686624 -81.857461 
L 743.553843 -83.478231 
L 721.181443 -85.099 
L 696.911563 -86.719769 
L 672.555389 -88.340538 
L 650.04783 -89.961308 
L 631.049144 -91.582077 
L 616.625341 -93.202846 
L 607.107816 -94.823616 
L 602.159428 -96.444385 
L 600.9975 -98.065154 
L 602.679822 -99.685923 
L 606.360404 -101.306693 
L 611.454844 -102.927462 
L 617.696428 -104.548231 
L 625.09473 -106.169001 
L 633.823809 -107.78977 
L 644.073172 -109.410539 
L 655.898265 -111.031309 
L 669.10931 -112.652078 
L 683.232377 -114.272847 
L 697.559753 -115.893616 
L 711.279342 -117.514386 
L 723.644626 -119.135155 
L 734.130733 -120.755924 
L 742.526958 -122.376694 
L 748.940476 -123.997463 
L 753.719007 -125.618232 
L 757.32729 -127.239001 
L 760.222658 -128.859771 
L 762.766698 -130.48054 
L 765.189552 -132.101309 
L 767.601416 -133.722079 
L 770.031379 -135.342848 
L 772.470621 -136.963617 
L 774.903303 -138.584386 
L 777.318728 -140.205156 
L 779.707308 -141.825925 
L 782.047557 -143.446694 
L 784.292156 -145.067464 
L 786.359757 -146.688233 
L 788.137251 -148.309002 
L 789.494659 -149.929771 
L 790.31126 -151.550541 
L 790.507032 -153.17131 
L 790.069825 -154.792079 
L 789.068339 -156.412849 
L 787.645107 -158.033618 
L 785.990989 -159.654387 
L 784.309665 -161.275156 
L 782.783648 -162.895926 
L 781.551079 -164.516695 
L 780.696712 -166.137464 
L 780.254505 -167.758234 
L 780.216235 -169.379003 
L 780.541255 -170.999772 
L 781.165492 -172.620542 
L 782.010516 -174.241311 
L 782.99438 -175.86208 
L 784.044691 -177.482849 
L 785.11226 -179.103619 
L 786.181752 -180.724388 
L 787.275204 -182.345157 
L 788.445279 -183.965927 
L 789.757941 -185.586696 
L 791.268165 -187.207465 
L 792.995979 -188.828234 
L 794.911451 -190.449004 
L 796.934914 -192.069773 
L 798.953085 -193.690542 
L 800.845427 -195.311312 
L 802.511147 -196.932081 
L 803.887807 -198.55285 
L 804.956834 -200.173619 
L 805.73692 -201.794389 
L 806.270444 -203.415158 
L 806.609089 -205.035927 
L 806.803112 -206.656697 
L 806.895787 -208.277466 
L 806.922113 -209.898235 
L 806.909794 -211.519004 
L 806.88077 -213.139774 
L 806.852449 -214.760543 
L 806.8385 -216.381312 
L 806.849274 -218.002082 
L 806.89181 -219.622851 
L 806.969376 -221.24362 
L 807.080716 -222.864389 
L 807.219615 -224.485159 
L 807.375434 -226.105928 
L 807.534929 -227.726697 
L 807.68495 -229.347467 
L 807.815129 -230.968236 
L 807.919595 -232.589005 
L 807.997255 -234.209774 
L 808.050808 -235.830544 
L 808.204192 -235.830544 
L 808.204192 -235.830544 
L 808.257745 -234.209774 
L 808.335405 -232.589005 
L 808.439871 -230.968236 
L 808.57005 -229.347467 
L 808.720071 -227.726697 
L 808.879566 -226.105928 
L 809.035385 -224.485159 
L 809.174284 -222.864389 
L 809.285624 -221.24362 
L 809.36319 -219.622851 
L 809.405726 -218.002082 
L 809.4165 -216.381312 
L 809.402551 -214.760543 
L 809.37423 -213.139774 
L 809.345206 -211.519004 
L 809.332887 -209.898235 
L 809.359213 -208.277466 
L 809.451888 -206.656697 
L 809.645911 -205.035927 
L 809.984556 -203.415158 
L 810.51808 -201.794389 
L 811.298166 -200.173619 
L 812.367193 -198.55285 
L 813.743853 -196.932081 
L 815.409573 -195.311312 
L 817.301915 -193.690542 
L 819.320086 -192.069773 
L 821.343549 -190.449004 
L 823.259021 -188.828234 
L 824.986835 -187.207465 
L 826.497059 -185.586696 
L 827.809721 -183.965927 
L 828.979796 -182.345157 
L 830.073248 -180.724388 
L 831.14274 -179.103619 
L 832.210309 -177.482849 
L 833.26062 -175.86208 
L 834.244484 -174.241311 
L 835.089508 -172.620542 
L 835.713745 -170.999772 
L 836.038765 -169.379003 
L 836.000495 -167.758234 
L 835.558288 -166.137464 
L 834.703921 -164.516695 
L 833.471352 -162.895926 
L 831.945335 -161.275156 
L 830.264011 -159.654387 
L 828.609893 -158.033618 
L 827.186661 -156.412849 
L 826.185175 -154.792079 
L 825.747968 -153.17131 
L 825.94374 -151.550541 
L 826.760341 -149.929771 
L 828.117749 -148.309002 
L 829.895243 -146.688233 
L 831.962844 -145.067464 
L 834.207443 -143.446694 
L 836.547692 -141.825925 
L 838.936272 -140.205156 
L 841.351697 -138.584386 
L 843.784379 -136.963617 
L 846.223621 -135.342848 
L 848.653584 -133.722079 
L 851.065448 -132.101309 
L 853.488302 -130.48054 
L 856.032342 -128.859771 
L 858.92771 -127.239001 
L 862.535993 -125.618232 
L 867.314524 -123.997463 
L 873.728042 -122.376694 
L 882.124267 -120.755924 
L 892.610374 -119.135155 
L 904.975658 -117.514386 
L 918.695247 -115.893616 
L 933.022623 -114.272847 
L 947.14569 -112.652078 
L 960.356735 -111.031309 
L 972.181828 -109.410539 
L 982.431191 -107.78977 
L 991.16027 -106.169001 
L 998.558572 -104.548231 
L 1004.800156 -102.927462 
L 1009.894596 -101.306693 
L 1013.575178 -99.685923 
L 1015.2575 -98.065154 
L 1014.095572 -96.444385 
L 1009.147184 -94.823616 
L 999.629659 -93.202846 
L 985.205856 -91.582077 
L 966.20717 -89.961308 
L 943.699611 -88.340538 
L 919.343437 -86.719769 
L 895.073557 -85.099 
L 872.701157 -83.478231 
L 853.568376 -81.857461 
L 838.36063 -80.236692 
L 827.111571 -78.615923 
L 819.361318 -76.995153 
L 814.384585 -75.374384 
z
" id="m49b160d40b" style="stroke:#4c4c4c;stroke-width:3;"/>
    </defs>
    <g clip-path="url(#p09a1dafc7e)">
     <use style="fill:#5f9e6e;stroke:#4c4c4c;stroke-width:3;" x="0" xlink:href="#m49b160d40b" y="288"/>
    </g>
   </g>
   <g id="line2d_10">
    <path clip-path="url(#p09a1dafc7e)" d="M 290.3025 237.10796 
L 290.3025 104.756483 
" style="fill:none;stroke:#4c4c4c;stroke-linecap:round;stroke-width:3;"/>
   </g>
   <g id="line2d_11">
    <path clip-path="url(#p09a1dafc7e)" d="M 290.3025 192.677367 
L 290.3025 156.580533 
" style="fill:none;stroke:#4c4c4c;stroke-linecap:round;stroke-width:9;"/>
   </g>
   <g id="line2d_12">
    <path clip-path="url(#p09a1dafc7e)" d="M 808.1275 200.201697 
L 808.1275 128.010587 
" style="fill:none;stroke:#4c4c4c;stroke-linecap:round;stroke-width:3;"/>
   </g>
   <g id="line2d_13">
    <path clip-path="url(#p09a1dafc7e)" d="M 808.1275 192.369322 
L 808.1275 166.611533 
" style="fill:none;stroke:#4c4c4c;stroke-linecap:round;stroke-width:9;"/>
   </g>
   <g id="patch_3">
    <path d="M 31.39 259.4 
L 31.39 42.301335 
" style="fill:none;"/>
   </g>
   <g id="patch_4">
    <path d="M 1067.04 259.4 
L 1067.04 42.301335 
" style="fill:none;"/>
   </g>
   <g id="patch_5">
    <path d="M 31.39 259.4 
L 1067.04 259.4 
" style="fill:none;"/>
   </g>
   <g id="patch_6">
    <path d="M 31.39 42.301335 
L 1067.04 42.301335 
" style="fill:none;"/>
   </g>
   <g id="PathCollection_1">
    <defs>
     <path d="M 0 3 
C 0.795609 3 1.55874 2.683901 2.12132 2.12132 
C 2.683901 1.55874 3 0.795609 3 0 
C 3 -0.795609 2.683901 -1.55874 2.12132 -2.12132 
C 1.55874 -2.683901 0.795609 -3 0 -3 
C -0.795609 -3 -1.55874 -2.683901 -2.12132 -2.12132 
C -2.683901 -1.55874 -3 -0.795609 -3 0 
C -3 0.795609 -2.683901 1.55874 -2.12132 2.12132 
C -1.55874 2.683901 -0.795609 3 0 3 
z
" id="m130e875ae1" style="stroke:#4c4c4c;stroke-width:0.3;"/>
    </defs>
    <g clip-path="url(#p09a1dafc7e)">
     <use style="fill:#ffffff;stroke:#4c4c4c;stroke-width:0.3;" x="290.3025" xlink:href="#m130e875ae1" y="175.037309"/>
    </g>
   </g>
   <g id="PathCollection_2">
    <g clip-path="url(#p09a1dafc7e)">
     <use style="fill:#ffffff;stroke:#4c4c4c;stroke-width:0.3;" x="808.1275" xlink:href="#m130e875ae1" y="182.321854"/>
    </g>
   </g>
  </g>
  <g id="text_12">
   <!-- Violin Plot of all Continuous Variables -->
   <g style="fill:#262626;" transform="translate(416.035547 16.496719)scale(0.15 -0.15)">
    <defs>
     <path d="M 28.171875 0 
L 0.4375 71.578125 
L 10.6875 71.578125 
L 29.296875 19.578125 
Q 31.546875 13.328125 33.0625 7.859375 
Q 34.71875 13.71875 36.921875 19.578125 
L 56.25 71.578125 
L 65.921875 71.578125 
L 37.890625 0 
z
" id="ArialMT-86"/>
     <path d="M 3.328125 25.921875 
Q 3.328125 40.328125 11.328125 47.265625 
Q 18.015625 53.03125 27.640625 53.03125 
Q 38.328125 53.03125 45.109375 46.015625 
Q 51.90625 39.015625 51.90625 26.65625 
Q 51.90625 16.65625 48.90625 10.90625 
Q 45.90625 5.171875 40.15625 2 
Q 34.421875 -1.171875 27.640625 -1.171875 
Q 16.75 -1.171875 10.03125 5.8125 
Q 3.328125 12.796875 3.328125 25.921875 
z
M 12.359375 25.921875 
Q 12.359375 15.96875 16.703125 11.015625 
Q 21.046875 6.0625 27.640625 6.0625 
Q 34.1875 6.0625 38.53125 11.03125 
Q 42.875 16.015625 42.875 26.21875 
Q 42.875 35.84375 38.5 40.796875 
Q 34.125 45.75 27.640625 45.75 
Q 21.046875 45.75 16.703125 40.8125 
Q 12.359375 35.890625 12.359375 25.921875 
z
" id="ArialMT-111"/>
     <path d="M 6.390625 0 
L 6.390625 71.578125 
L 15.1875 71.578125 
L 15.1875 0 
z
" id="ArialMT-108"/>
     <path d="M 6.59375 0 
L 6.59375 51.859375 
L 14.5 51.859375 
L 14.5 44.484375 
Q 20.21875 53.03125 31 53.03125 
Q 35.6875 53.03125 39.625 51.34375 
Q 43.5625 49.65625 45.515625 46.921875 
Q 47.46875 44.1875 48.25 40.4375 
Q 48.734375 37.984375 48.734375 31.890625 
L 48.734375 0 
L 39.9375 0 
L 39.9375 31.546875 
Q 39.9375 36.921875 38.90625 39.578125 
Q 37.890625 42.234375 35.28125 43.8125 
Q 32.671875 45.40625 29.15625 45.40625 
Q 23.53125 45.40625 19.453125 41.84375 
Q 15.375 38.28125 15.375 28.328125 
L 15.375 0 
z
" id="ArialMT-110"/>
     <path id="ArialMT-32"/>
     <path d="M 7.71875 0 
L 7.71875 71.578125 
L 34.71875 71.578125 
Q 41.84375 71.578125 45.609375 70.90625 
Q 50.875 70.015625 54.4375 67.546875 
Q 58.015625 65.09375 60.1875 60.640625 
Q 62.359375 56.203125 62.359375 50.875 
Q 62.359375 41.75 56.546875 35.421875 
Q 50.734375 29.109375 35.546875 29.109375 
L 17.1875 29.109375 
L 17.1875 0 
z
M 17.1875 37.546875 
L 35.6875 37.546875 
Q 44.875 37.546875 48.734375 40.96875 
Q 52.59375 44.390625 52.59375 50.59375 
Q 52.59375 55.078125 50.3125 58.265625 
Q 48.046875 61.46875 44.34375 62.5 
Q 41.9375 63.140625 35.5 63.140625 
L 17.1875 63.140625 
z
" id="ArialMT-80"/>
     <path d="M 25.78125 7.859375 
L 27.046875 0.09375 
Q 23.34375 -0.6875 20.40625 -0.6875 
Q 15.625 -0.6875 12.984375 0.828125 
Q 10.359375 2.34375 9.28125 4.8125 
Q 8.203125 7.28125 8.203125 15.1875 
L 8.203125 45.015625 
L 1.765625 45.015625 
L 1.765625 51.859375 
L 8.203125 51.859375 
L 8.203125 64.703125 
L 16.9375 69.96875 
L 16.9375 51.859375 
L 25.78125 51.859375 
L 25.78125 45.015625 
L 16.9375 45.015625 
L 16.9375 14.703125 
Q 16.9375 10.9375 17.40625 9.859375 
Q 17.875 8.796875 18.921875 8.15625 
Q 19.96875 7.515625 21.921875 7.515625 
Q 23.390625 7.515625 25.78125 7.859375 
z
" id="ArialMT-116"/>
     <path d="M 8.6875 0 
L 8.6875 45.015625 
L 0.921875 45.015625 
L 0.921875 51.859375 
L 8.6875 51.859375 
L 8.6875 57.375 
Q 8.6875 62.59375 9.625 65.140625 
Q 10.890625 68.5625 14.078125 70.671875 
Q 17.28125 72.796875 23.046875 72.796875 
Q 26.765625 72.796875 31.25 71.921875 
L 29.9375 64.265625 
Q 27.203125 64.75 24.75 64.75 
Q 20.75 64.75 19.09375 63.03125 
Q 17.4375 61.328125 17.4375 56.640625 
L 17.4375 51.859375 
L 27.546875 51.859375 
L 27.546875 45.015625 
L 17.4375 45.015625 
L 17.4375 0 
z
" id="ArialMT-102"/>
     <path d="M 58.796875 25.09375 
L 68.265625 22.703125 
Q 65.28125 11.03125 57.546875 4.90625 
Q 49.8125 -1.21875 38.625 -1.21875 
Q 27.046875 -1.21875 19.796875 3.484375 
Q 12.546875 8.203125 8.765625 17.140625 
Q 4.984375 26.078125 4.984375 36.328125 
Q 4.984375 47.515625 9.25 55.828125 
Q 13.53125 64.15625 21.40625 68.46875 
Q 29.296875 72.796875 38.765625 72.796875 
Q 49.515625 72.796875 56.828125 67.328125 
Q 64.15625 61.859375 67.046875 51.953125 
L 57.71875 49.75 
Q 55.21875 57.5625 50.484375 61.125 
Q 45.75 64.703125 38.578125 64.703125 
Q 30.328125 64.703125 24.78125 60.734375 
Q 19.234375 56.78125 16.984375 50.109375 
Q 14.75 43.453125 14.75 36.375 
Q 14.75 27.25 17.40625 20.4375 
Q 20.0625 13.625 25.671875 10.25 
Q 31.296875 6.890625 37.84375 6.890625 
Q 45.796875 6.890625 51.3125 11.46875 
Q 56.84375 16.0625 58.796875 25.09375 
z
" id="ArialMT-67"/>
     <path d="M 40.578125 0 
L 40.578125 7.625 
Q 34.515625 -1.171875 24.125 -1.171875 
Q 19.53125 -1.171875 15.546875 0.578125 
Q 11.578125 2.34375 9.640625 5 
Q 7.71875 7.671875 6.9375 11.53125 
Q 6.390625 14.109375 6.390625 19.734375 
L 6.390625 51.859375 
L 15.1875 51.859375 
L 15.1875 23.09375 
Q 15.1875 16.21875 15.71875 13.8125 
Q 16.546875 10.359375 19.234375 8.375 
Q 21.921875 6.390625 25.875 6.390625 
Q 29.828125 6.390625 33.296875 8.421875 
Q 36.765625 10.453125 38.203125 13.9375 
Q 39.65625 17.4375 39.65625 24.078125 
L 39.65625 51.859375 
L 48.4375 51.859375 
L 48.4375 0 
z
" id="ArialMT-117"/>
    </defs>
    <use xlink:href="#ArialMT-86"/>
    <use x="64.949219" xlink:href="#ArialMT-105"/>
    <use x="87.166016" xlink:href="#ArialMT-111"/>
    <use x="142.78125" xlink:href="#ArialMT-108"/>
    <use x="164.998047" xlink:href="#ArialMT-105"/>
    <use x="187.214844" xlink:href="#ArialMT-110"/>
    <use x="242.830078" xlink:href="#ArialMT-32"/>
    <use x="270.613281" xlink:href="#ArialMT-80"/>
    <use x="337.3125" xlink:href="#ArialMT-108"/>
    <use x="359.529297" xlink:href="#ArialMT-111"/>
    <use x="415.144531" xlink:href="#ArialMT-116"/>
    <use x="442.927734" xlink:href="#ArialMT-32"/>
    <use x="470.710938" xlink:href="#ArialMT-111"/>
    <use x="526.326172" xlink:href="#ArialMT-102"/>
    <use x="554.109375" xlink:href="#ArialMT-32"/>
    <use x="581.892578" xlink:href="#ArialMT-97"/>
    <use x="637.507812" xlink:href="#ArialMT-108"/>
    <use x="659.724609" xlink:href="#ArialMT-108"/>
    <use x="681.941406" xlink:href="#ArialMT-32"/>
    <use x="709.724609" xlink:href="#ArialMT-67"/>
    <use x="781.941406" xlink:href="#ArialMT-111"/>
    <use x="837.556641" xlink:href="#ArialMT-110"/>
    <use x="893.171875" xlink:href="#ArialMT-116"/>
    <use x="920.955078" xlink:href="#ArialMT-105"/>
    <use x="943.171875" xlink:href="#ArialMT-110"/>
    <use x="998.787109" xlink:href="#ArialMT-117"/>
    <use x="1054.402344" xlink:href="#ArialMT-111"/>
    <use x="1110.017578" xlink:href="#ArialMT-117"/>
    <use x="1165.632812" xlink:href="#ArialMT-115"/>
    <use x="1215.632812" xlink:href="#ArialMT-32"/>
    <use x="1243.416016" xlink:href="#ArialMT-86"/>
    <use x="1302.740234" xlink:href="#ArialMT-97"/>
    <use x="1358.355469" xlink:href="#ArialMT-114"/>
    <use x="1391.65625" xlink:href="#ArialMT-105"/>
    <use x="1413.873047" xlink:href="#ArialMT-97"/>
    <use x="1469.488281" xlink:href="#ArialMT-98"/>
    <use x="1525.103516" xlink:href="#ArialMT-108"/>
    <use x="1547.320312" xlink:href="#ArialMT-101"/>
    <use x="1602.935547" xlink:href="#ArialMT-115"/>
   </g>
  </g>
 </g>
 <defs>
  <clipPath id="p09a1dafc7e">
   <rect height="217.098665" width="1035.65" x="31.39" y="42.301335"/>
  </clipPath>
 </defs>
</svg>
